# xmcd CD database file
#
# Track frame offsets:
#	150
#	18740
#	37672
#	60410
#	85510
#	105552
#	125072
#	148580
#	170802
#	187895
#	204377
#	218800
#
# Disc length: 3191 seconds
#
# Revision: 0
# Processed by: cddbd v1.5PL3 Copyright (c) Steve Scherf et al.
# Submitted via: CDex 1.51
#
DISCID=9f0c750c
DTITLE=SHY - CIRCUS
DYEAR=1900
DGENRE=JPop
TTITLE0=DOUBLE LIMITS
TTITLE1=いつもときどき
TTITLE2=Nana
TTITLE3=気持ち
TTITLE4=ラブソング
TTITLE5=ムジントウ
TTITLE6=花
TTITLE7=頬
TTITLE8=過食症baby
TTITLE9=ロープダンサー
TTITLE10=トビウオ
TTITLE11=After you
EXTD=
EXTT0=
EXTT1=
EXTT2=
EXTT3=
EXTT4=
EXTT5=
EXTT6=
EXTT7=
EXTT8=
EXTT9=
EXTT10=
EXTT11=
PLAYORDER=
